<svg height='200' width='200'  fill="#000000" xmlns="http://www.w3.org/2000/svg" xmlns:xlink="http://www.w3.org/1999/xlink" version="1.1" x="0px" y="0px" viewBox="0 0 56.693 56.693" enable-background="new 0 0 56.693 56.693" xml:space="preserve"><path d="M31.542,29.964l1.677,0.228c-0.279,2.08-1.532,3.529-3.042,3.529c-0.865,0-1.642-0.475-2.206-1.271  c-0.561,0.793-1.34,1.271-2.207,1.271c-1.512,0-2.763-1.449-3.043-3.529l1.678-0.228c0.174,1.291,0.833,2.065,1.365,2.065  c0.535,0,1.193-0.774,1.368-2.065l0.837,0.113l0.838-0.113c0.177,1.291,0.833,2.065,1.369,2.065  C30.709,32.029,31.368,31.255,31.542,29.964z M49.776,32.275c-0.227,0.629-0.483,1.248-0.765,1.857l3.083,0.73  c0.212,0.049,0.393,0.184,0.511,0.378c0.142,0.227,0.183,0.518,0.116,0.794c-0.105,0.464-0.479,0.789-0.901,0.789  c-0.063,0-0.123-0.007-0.186-0.021l-3.555-0.841c-0.248,0.439-0.513,0.869-0.786,1.294l2.448,1.752  c0.178,0.127,0.293,0.318,0.333,0.543c0.042,0.264-0.029,0.547-0.195,0.779c-0.199,0.279-0.507,0.447-0.821,0.447  c-0.174,0-0.338-0.052-0.475-0.15l-2.438-1.742c-0.406,0.531-0.836,1.053-1.288,1.553c-4.408,4.896-10.4,7.59-16.866,7.59  c-5.989,0-11.738-2.693-16.188-7.586c-0.478-0.523-0.931-1.068-1.362-1.627l-2.535,1.813c-0.138,0.098-0.301,0.15-0.478,0.15  c-0.311,0-0.619-0.168-0.818-0.447c-0.167-0.232-0.238-0.516-0.195-0.779c0.038-0.225,0.156-0.419,0.332-0.543l2.54-1.817  c-0.268-0.409-0.528-0.827-0.772-1.253l-3.659,0.865c-0.062,0.014-0.121,0.021-0.185,0.021c-0.423,0-0.794-0.325-0.905-0.785  c-0.067-0.277-0.025-0.568,0.115-0.795c0.119-0.193,0.303-0.328,0.515-0.378l3.157-0.748C7.265,33.511,7,32.899,6.763,32.281  l-2.927-0.264c-0.248-0.025-0.475-0.163-0.623-0.387c-0.129-0.193-0.188-0.438-0.167-0.686c0.053-0.551,0.476-0.959,0.969-0.914  l2.064,0.186c-0.522-1.852-0.798-3.719-0.798-5.527c0-0.33,0.009-0.67,0.031-1.01c-0.008-1.896,0.03-4.609,0.248-6.84  c0.026-0.27,0.051-0.525,0.072-0.771c0.206-2.189,0.341-3.633,1.332-6.362c0.53-1.457,2.187-2.555,3.857-2.555  c0.553,0,1.066,0.121,1.521,0.362l0.034,0.017l4.964,2.842c3.067-0.866,6.648-1.304,10.651-1.304c4.152,0,7.87,0.466,11.059,1.389  l5.013-2.869c0.455-0.239,0.969-0.362,1.521-0.362c1.669,0,3.33,1.098,3.856,2.555c0.992,2.728,1.127,4.174,1.329,6.363  c0.024,0.245,0.049,0.5,0.074,0.77c0.206,2.121,0.251,4.687,0.251,6.481c0.036,0.479,0.054,0.892,0.054,1.293  c0,1.841-0.251,3.702-0.729,5.526l2.052-0.186c0.485-0.045,0.919,0.363,0.97,0.914c0.022,0.248-0.036,0.494-0.166,0.686  c-0.145,0.224-0.375,0.363-0.623,0.386L49.776,32.275z M48.894,24.688c0-0.353-0.016-0.719-0.056-1.157l-0.004-0.092  c0-1.746-0.039-4.258-0.238-6.307c-0.026-0.271-0.052-0.529-0.074-0.776c-0.2-2.159-0.311-3.349-1.206-5.803  c-0.2-0.56-1.027-1.068-1.732-1.068c-0.178,0-0.331,0.032-0.457,0.094l-5.804,3.323l-0.471-0.146  c-3.078-0.948-6.731-1.429-10.864-1.429c-3.99,0-7.513,0.451-10.471,1.344l-0.465,0.143l-5.78-3.312  c-0.125-0.063-0.279-0.095-0.456-0.095c-0.705,0-1.533,0.508-1.736,1.069c-0.891,2.456-1.002,3.644-1.204,5.802  c-0.021,0.248-0.047,0.508-0.074,0.78c-0.21,2.149-0.244,4.802-0.236,6.647l-0.001,0.07c-0.019,0.307-0.028,0.614-0.028,0.912  c0,9.748,8.934,21.081,20.454,21.081c5.819,0,11.213-2.433,15.191-6.845C46.759,34.958,48.894,29.634,48.894,24.688z M17.735,21.994  c-1.325,0-2.397,1.074-2.397,2.396c0,1.324,1.072,2.398,2.397,2.398c1.324,0,2.397-1.074,2.397-2.398S19.059,21.994,17.735,21.994z   M36.407,26.038 M39.448,24.361c0.531,0,1.036,0.109,1.494,0.306c0.012-0.093,0.028-0.183,0.028-0.276  c0-1.324-1.072-2.396-2.396-2.396c-1.324,0-2.398,1.074-2.398,2.396c0,0.484,0.146,0.933,0.392,1.309  C37.268,24.886,38.292,24.361,39.448,24.361z"></path></svg>